# xmcd CD database file
#
# Track frame offsets:
#	187
#	21180
#	40695
#	58285
#	79332
#	95382
#	112620
#	130677
#	147655
#	166405
#	183050
#
# Disc length: 2698 seconds
#
# Revision: 0
# Processed by: cddbd v1.5PL3 Copyright (c) Steve Scherf et al.
# Submitted via: CDex 1.50beta8
#
DISCID=8a0a880b
DTITLE=荻野目洋子 - ROUTE 246 CONNEXION
DYEAR=1987
DGENRE=Pop
TTITLE0=246プラネット・ガールズ
TTITLE1=北青山3丁目4番地
TTITLE2=続・六本木純情派
TTITLE3=キラー通りは毎日がパーティー
TTITLE4=バビロンA GO GO
TTITLE5=さよならの果実たち(Version II)
TTITLE6=悲しきヘアピン・サーカス
TTITLE7=軽井沢コネクション
TTITLE8=少年の最後の夏
TTITLE9=湾岸太陽族(Version II)
TTITLE10=避暑地の出来事
EXTD=YEAR: 1987
EXTT0=
EXTT1=
EXTT2=
EXTT3=
EXTT4=
EXTT5=
EXTT6=
EXTT7=
EXTT8=
EXTT9=
EXTT10=
PLAYORDER=
